<?xml version="1.0" encoding="utf-8"?>
<!-- Generator: Adobe Illustrator 15.0.2, SVG Export Plug-In . SVG Version: 6.00 Build 0)  -->
<!DOCTYPE svg PUBLIC "-//W3C//DTD SVG 1.1//EN" "http://www.w3.org/Graphics/SVG/1.1/DTD/svg11.dtd">
<svg version="1.1" id="Layer_1" xmlns="http://www.w3.org/2000/svg" xmlns:xlink="http://www.w3.org/1999/xlink" x="0px" y="0px"
	 width="792px" height="612px" viewBox="0 0 792 612" enable-background="new 0 0 792 612" xml:space="preserve">
<g>
	<g id="Fille">
		<path fill-rule="evenodd" clip-rule="evenodd" fill="#262626" d="M205.252,163.585c0.606,2.029,3.162,7.172,0,8.309
			c-2.923,0.408-0.654-4.38-3.02-4.531c-2.743,0.027-3.312,2.221-3.017,5.286c-5.336,1.054-5.547-3.015-5.29-7.547
			c-3.904,1.517-4.547,1.44-6.792-1.516c-1.485,2.042-0.445,6.6-0.753,9.818c-4.618,1.286-5.541-4.092-3.775-6.793
			c-1.556-0.964-6.989,4.492-6.038-3.025c-0.975,1.042-3.281,0.748-5.29,0.759c0.104-1.355-0.918-1.595-0.748-3.019
			c-0.026-2.539,3.494-1.539,4.526-3.022c-1.119-3.714-5.131-2.997-9.055-2.266c-0.603-2.936-0.781-3.909,0.754-6.038
			c-1.661-2.114-6.774-0.776-6.794-4.526c0.979-2.799,5.418-2.127,6.04-5.288c-1.982-1.538-7.067,0.022-6.04-4.523
			c1.771,0.238,2.829,1.19,5.282,0.752c2.058-0.696-1.053-2.363,0-4.529c1.253-1.263,4.436-0.604,6.798-0.756
			c-1.348-3.685-7.925-2.142-10.571-4.526c-0.096-1.355,0.925-1.595,0.753-3.022c1.924-1.044,9.928,3.257,11.325-1.509
			c-2.951-1.58-3.407-2.511-8.305-3.017c1.043-0.978,0.747-3.283,0.758-5.286c2.283-1.073,4.04,0.333,6.793,0.755
			c0.244-3.163-2.911-5.595-0.753-8.305c3.749-0.737,2.986,3.049,5.283,3.773c1.777-0.992-0.33-5.863,2.262-6.038
			c3.139-0.122,1.51,4.533,3.77,5.284c1.938-1.593,1.483-5.569,1.517-9.055c1.404-0.107,2.521-0.502,3.021-1.516
			c2.081,0.94,2.184,3.861,3.771,5.287c1.412-1.356,1.054-4.48,4.526-3.771c-0.323,4.598,0.34,8.211,3.025,9.809
			c3.124-3.392-0.617-10.344,2.261-12.833c2.771,0,2.89,2.646,4.534,3.773c1.922-0.842-0.305-5.837,1.504-6.791
			c3.773,0.504,2.577,5.977,4.529,8.303c0.642,1.782,1.863-2.08,4.529-0.757c0.874,1.344-2.592,6.392,0.755,8.304
			c3.4-0.118,2.378-4.67,6.04-4.528c0.364,3.156,1.187,5.858,2.267,8.304c3.616,0.325,2.695-4.346,6.035-2.266
			c0.366,2.377-1.075,2.951-1.505,4.53c0.242,2.267,4.143,0.888,4.526,3.022c0.249,3.27-1.038,4.997-3.021,6.04
			c0.303,2.205,4.431,0.6,5.288,2.26c-0.615,4.369-5.191,4.951-4.533,10.573c1.206,1.305,3.398,1.632,6.038,1.507
			c0.242,4.265-2.391,5.654-6.038,6.038c-0.076,3.348,3.92,2.622,4.533,5.286c-0.652,3.337-2.963,3.847-6.043,3.018
			c-1.688,1.826-3.167,3.875-4.521,6.039c18.209,24.304,33.931,51.113,53.587,73.976c4.101,0.683,7.026,2.539,12.075,2.262
			c-5.287-7.039-13.978-10.671-20.373-16.602c-4.675-10.218-13.836-27.546-2.265-36.993c-6.583-3.34-9.02-14.146-6.797-21.89
			c5.373-3.178,4.646-12.462,10.566-15.095c1.333,0.186,1.722,1.297,1.514,3.019c2.666-4.375,5.713-8.372,11.316-9.816
			c3.035,0.796-0.093,3.069,0.756,6.039c4.463-1.826,6.357-6.222,12.835-6.039c1.749,1.68-0.254,2.945,0,5.286
			c4.808,0.724,7.84,3.233,12.83,3.775c-0.44,1.569-1.581,2.439-2.26,3.774c4.599,0.936,8.098,2.978,9.058,7.552
			c-1.438-0.327-1.898-1.627-3.774-1.514c3.734,5.327,6.04,12.076,5.286,21.892c0.672,2.437-2.464,1.062-3.026,2.266
			c-0.115,2.384-0.021,4.553,1.515,5.282c0.126,1.635-2.684,0.344-3.774,0.756c0,1.765,0,3.523,0,5.281
			c-10.662-2.163-11.677-13.986-24.908-13.585c13.912,9.849,17.229,27.45,14.335,49.063c3.676-1.021,8.612-4.263,9.818-8.302
			c6.595-22.143,16.376-50.162,25.666-70.958c-3.098-4.914,0.069-7.613-2.267-13.583c-3.335,0.061-6.415-0.129-6.036-3.776
			c0.194-2.565,3.399-2.136,4.528-3.771c-1.755-3.035-8.007-1.562-6.794-7.552c2.593,0.329,4.229-0.299,6.04-0.755
			c-0.685-2.384-2.275-3.313-0.757-6.038c-1.575-0.979-6.388-2.62-4.533-4.531c-0.714-2.724,2.978-1.047,4.533-1.51
			c-0.683-2.587-5.702-10.069,1.511-9.809c0.123-2.391-2.007-2.526-1.511-5.288c2.978-1.771,2.308,1.42,5.285,1.511
			c2.146-1.125,2.097-4.447,2.262-7.549c3.676-0.408,3.531,3.01,6.038,3.773c4.753-1.814-0.104-6.642,0.757-8.306
			c2.609-0.593,3.188,0.842,4.531,1.516c1.236-3.043,1.28-7.274,3.773-9.061c2.757,0.264,1.169,4.875,2.265,6.794
			c1.795-1.225,1.201-4.84,5.28-3.775c0.744,4.009-0.179,8.402,1.514,12.833c2.701-2.218,4.383-6.391,3.015-10.571
			c3.672-0.895,3.357,2.182,4.533,3.78c1.972-1.297,1.636-4.91,4.528-5.286c0.12,0.882,1.377,0.633,2.263,0.753
			c-0.271,3.791,0.46,6.582,1.512,9.059c2.65-0.118,0.914-4.62,3.773-4.526c2.975-0.464,0.89,4.143,1.514,6.036
			c3.145-0.803,3.411-6.18,7.545-3.771c-0.691,2.579-1.134,5.403-2.266,7.545c2.709-0.063,4.361-1.174,6.794-1.507
			c1.034,1.483,0.72,4.308,1.512,6.04c-3.521-0.504-4.849,1.188-7.548,1.505c-0.629,2.137,1.059,1.956,0.756,3.773
			c4.275,0.506,6.857-0.687,9.807-1.51c2.751,5.584-4.908,5.75-9.055,6.799c0.08,4.051,3.279,1.06,6.04,1.505
			c0.79,2.138,0.79,3.15,0,5.286c2.599,0.329,4.229-0.301,6.036-0.754c0.32,3.919-3.662,4.692-6.036,3.773
			c0.06,4.469,6.439,2.62,6.793,6.797c-1.645,1.625-3.778,2.764-6.793,3.019c0.316,3.442,2.077,3.19,0.755,6.788
			c-3.646,0.233-7.214-2.255-8.303,1.512c-0.902,3.167,3.182,1.348,3.774,3.021c0,1.008,0,2.011,0,3.019
			c-3.737,0.962-6.876,0.541-6.04,4.526c-2.852,0.333-3.549-1.488-5.285-2.266c-0.053,3.819,0.953,4.323,0,7.552
			c-1.257,0-2.518,0-3.773,0c0-2.767,0-5.534,0-8.305c-2.777-0.591-3.129,3.826-7.55,0.753c-0.308,1.758,1.036,9.523-5.286,7.552
			c0.362-2.874-0.315-4.712-2.264-5.286c-1.941,0.573-2.62,2.412-2.265,5.286c-2.617-0.604-2.896,1.123-5.28,0.754
			c-1.264-1.25-0.604-4.43-0.76-6.795c-3.095,1.438-4.253,4.804-8.3,5.286c-10.298,25.69-16.41,55.555-24.911,83.035
			c1.444,4.088,5.665,8.082,6.518,11.816c0.976,3.144-3.062,39.53-1.991,53.857c9.505,12.39,12.663,31.122,24.913,40.76
			c-1.396,4.894-5.722,6.858-9.812,9.055c-0.308,1.826,1.374,1.647,0.755,3.78c-4.151,1.093-8.137,7.962-12.08,4.524
			c-1.462,1.058-1.124,3.914-2.261,5.287c-1.581-0.317-2.002,0.518-3.016,0.755c-2.581,0.557-1.251-2.783-3.026-3.021
			c-1.313,1.963-0.344,6.197-3.771,6.042c-2.744,15.468,2.269,45.383-13.59,47.558c-21.449,17.054-30.718-11.854-38.151-24.863
			c-5.51-9.626-9.125-17.692-12.425-26.471c-0.875-0.63-2.022-0.994-3.776-0.754c-1.245-4.795-1.965-10.106-6.035-12.078
			c0.529-2.321,0.529-1.45,0-3.776c-8.918-10.012-20.729-17.185-29.442-27.933c-1.448-1.788-3.488-4.525-3.017-7.543
			c9.044-5.492,15.558,2.477,24.154,5.286c8.703,2.838,16.288,0.854,20.383,5.278c0.039,2.475,2.144,2.889,1.505,6.045
			c15.411-5.225,18.005-23.264,33.218-28.685c-0.306-9.45-2.463-18.954-6.795-25.672c-1.595-2.474-4.305-3.767-6.038-6.032
			c-2.402-3.143-3.285-7.327-5.283-10.566c-4.528-7.362-10.938-13.384-15.853-20.386c-5.048-7.208-8.514-15.403-12.832-23.4
			c-8.527-15.769-21.504-29.077-29.442-46.048C213.164,170.082,208.072,166.186,205.252,163.585z M278.476,362.873
			c-0.456-1.809-1.091-3.447-0.762-6.038c-2.306,0.545-2.221-1.303-4.526-0.755C273.218,360.076,274.662,362.654,278.476,362.873z"
			/>
	</g>
	<g id="Lettres">
		<g id="Groupies">
			<path fill="#262626" d="M187.305,424.125c2.877,1.252,5.378,2.941,7.507,5.067c2.127,2.129,3.815,4.63,5.067,7.507
				c1.25,2.88,1.877,5.944,1.877,9.196v4.129c0,1.754-0.814,2.88-2.439,3.379l-17.079,6.193c-1.628,0.501-2.439-0.124-2.439-1.877
				v-10.886c0-1.249-0.44-2.313-1.314-3.19c-0.876-0.874-1.941-1.313-3.19-1.313h-1.501c-1.252,0-2.317,0.439-3.19,1.313
				c-0.877,0.877-1.314,1.941-1.314,3.19v66.063c0,1.252,0.438,2.316,1.314,3.19c0.873,0.877,1.938,1.314,3.19,1.314h1.501
				c1.249,0,2.314-0.438,3.19-1.314c0.874-0.874,1.314-1.938,1.314-3.19v-20.27h-5.255v-21.396h24.586
				c1.75,0,2.627,0.877,2.627,2.628v39.976c0,3.255-0.627,6.319-1.877,9.196c-1.252,2.88-2.94,5.381-5.067,7.507
				c-2.129,2.13-4.63,3.818-7.507,5.067c-2.88,1.25-5.944,1.877-9.196,1.877h-7.132c-3.255,0-6.319-0.627-9.196-1.877
				c-2.88-1.249-5.381-2.938-7.507-5.067c-2.13-2.126-3.818-4.627-5.067-7.507c-1.253-2.877-1.877-5.941-1.877-9.196v-67.94
				c0-3.252,0.624-6.316,1.877-9.196c1.249-2.877,2.938-5.378,5.067-7.507c2.126-2.126,4.627-3.815,7.507-5.067
				c2.877-1.25,5.941-1.877,9.196-1.877h7.132C181.36,422.248,184.425,422.875,187.305,424.125z"/>
			<path fill="#262626" d="M238.727,533.542c0,1.754-0.938,2.628-2.815,2.628h-16.704c-1.627,0-2.439-0.874-2.439-2.628V426.189
				c0-1.751,0.874-2.628,2.628-2.628h28.151c3.253,0,6.317,0.628,9.196,1.877c2.877,1.252,5.379,2.941,7.508,5.067
				c2.126,2.129,3.815,4.631,5.067,7.507c1.249,2.88,1.877,5.944,1.877,9.196v23.085c0,4.631-1.379,8.792-4.129,12.48
				c-2.754,3.692-6.07,6.54-9.947,8.54l17.829,42.228c0.376,1.754-0.252,2.628-1.876,2.628h-17.079
				c-0.751,0-1.473-0.249-2.158-0.751c-0.689-0.498-1.159-1.126-1.408-1.877l-13.7-34.721V533.542z M238.727,473.86h6.006
				c1.249,0,2.313-0.438,3.19-1.314c0.874-0.874,1.313-1.938,1.313-3.19v-21.208c0-1.249-0.439-2.313-1.313-3.19
				c-0.877-0.874-1.941-1.313-3.19-1.313h-6.006V473.86z"/>
			<path fill="#262626" d="M339.885,513.836c0,3.255-0.628,6.319-1.877,9.196c-1.252,2.88-2.941,5.381-5.067,7.507
				c-2.129,2.13-4.631,3.818-7.507,5.067c-2.88,1.25-5.944,1.877-9.196,1.877h-7.132c-3.256,0-6.32-0.627-9.197-1.877
				c-2.879-1.249-5.381-2.938-7.507-5.067c-2.129-2.126-3.818-4.627-5.067-7.507c-1.252-2.877-1.877-5.941-1.877-9.196v-67.94
				c0-3.252,0.625-6.316,1.877-9.196c1.249-2.877,2.938-5.378,5.067-7.507c2.126-2.126,4.628-3.815,7.507-5.067
				c2.877-1.25,5.941-1.877,9.197-1.877h7.132c3.252,0,6.316,0.627,9.196,1.877c2.876,1.252,5.378,2.941,7.507,5.067
				c2.126,2.129,3.815,4.63,5.067,7.507c1.249,2.88,1.877,5.944,1.877,9.196V513.836z M317.926,446.834
				c0-1.249-0.439-2.313-1.313-3.19c-0.877-0.874-1.941-1.313-3.19-1.313h-1.502c-1.252,0-2.316,0.439-3.19,1.313
				c-0.877,0.877-1.313,1.941-1.313,3.19v66.063c0,1.252,0.437,2.316,1.313,3.19c0.874,0.877,1.938,1.314,3.19,1.314h1.502
				c1.249,0,2.313-0.438,3.19-1.314c0.874-0.874,1.313-1.938,1.313-3.19V446.834z"/>
			<path fill="#262626" d="M407.446,426.189v87.646c0,3.255-0.627,6.319-1.877,9.196c-1.252,2.88-2.94,5.381-5.066,7.507
				c-2.129,2.13-4.631,3.818-7.508,5.067c-2.879,1.25-5.943,1.877-9.195,1.877h-7.132c-3.256,0-6.32-0.627-9.197-1.877
				c-2.879-1.249-5.381-2.938-7.507-5.067c-2.129-2.126-3.818-4.627-5.067-7.507c-1.252-2.877-1.877-5.941-1.877-9.196v-87.646
				c0-1.751,0.874-2.628,2.628-2.628h16.703c1.751,0,2.628,0.877,2.628,2.628v86.708c0,1.252,0.437,2.316,1.313,3.19
				c0.874,0.877,1.938,1.314,3.19,1.314h1.502c1.249,0,2.313-0.438,3.19-1.314c0.873-0.874,1.313-1.938,1.313-3.19v-86.708
				c0-1.751,0.874-2.628,2.628-2.628h16.703C406.569,423.562,407.446,424.438,407.446,426.189z"/>
			<path fill="#262626" d="M453.238,423.562c3.252,0,6.316,0.628,9.196,1.877c2.877,1.252,5.378,2.941,7.507,5.067
				c2.126,2.129,3.815,4.631,5.067,7.507c1.249,2.88,1.877,5.944,1.877,9.196v24.962c0,3.255-0.628,6.319-1.877,9.196
				c-1.252,2.88-2.941,5.381-5.067,7.507c-2.129,2.13-4.63,3.818-7.507,5.067c-2.88,1.253-5.944,1.877-9.196,1.877h-8.821v37.724
				c0,1.754-0.877,2.628-2.628,2.628h-16.703c-1.754,0-2.628-0.874-2.628-2.628V426.189c0-1.751,0.874-2.628,2.628-2.628H453.238z
				 M454.927,448.147c0-1.249-0.439-2.313-1.313-3.19c-0.877-0.874-1.941-1.313-3.19-1.313h-6.006v32.093h6.006
				c1.249,0,2.313-0.437,3.19-1.313c0.874-0.874,1.313-1.938,1.313-3.19V448.147z"/>
			<path fill="#262626" d="M511.043,533.542c0,1.754-0.877,2.628-2.628,2.628h-16.703c-1.754,0-2.628-0.874-2.628-2.628V426.189
				c0-1.751,0.874-2.628,2.628-2.628h16.703c1.751,0,2.628,0.877,2.628,2.628V533.542z"/>
			<path fill="#262626" d="M573.913,516.839v16.703c0,1.754-0.877,2.628-2.628,2.628h-40.727c-1.754,0-2.628-0.874-2.628-2.628
				V424.188c0-1.751,0.874-2.628,2.628-2.628h40.727c1.751,0,2.628,0.877,2.628,2.628v17.704c0,1.754-0.877,2.628-2.628,2.628
				H549.89v22.396h18.58c1.751,0,2.628,0.877,2.628,2.627v16.704c0,1.754-0.877,2.627-2.628,2.627h-18.58v25.337h21.396
				C573.036,514.211,573.913,515.088,573.913,516.839z"/>
			<path fill="#262626" d="M625.148,424.125c2.877,1.252,5.378,2.941,7.507,5.067c2.126,2.129,3.815,4.63,5.067,7.507
				c1.25,2.88,1.877,5.944,1.877,9.196v7.132c0,1.754-0.815,2.88-2.439,3.378l-17.079,4.505c-1.628,0.501-2.439-0.123-2.439-1.877
				v-12.199c0-1.249-0.44-2.313-1.314-3.19c-0.877-0.874-1.941-1.313-3.19-1.313h-1.501c-1.253,0-2.317,0.439-3.191,1.313
				c-0.876,0.877-1.313,1.941-1.313,3.19v11.448c0.123,1.379,0.376,2.566,0.751,3.566c0.375,1.003,1.062,2.003,2.064,3.003
				l24.586,18.393c2,1.754,3.284,3.536,3.848,5.349c0.562,1.815,0.968,3.848,1.22,6.1v19.144c0,3.255-0.627,6.319-1.877,9.196
				c-1.252,2.88-2.941,5.381-5.067,7.507c-2.129,2.13-4.63,3.818-7.507,5.067c-2.88,1.25-5.944,1.877-9.196,1.877h-7.132
				c-3.255,0-6.319-0.627-9.196-1.877c-2.88-1.249-5.382-2.938-7.508-5.067c-2.129-2.126-3.817-4.627-5.067-7.507
				c-1.252-2.877-1.876-5.941-1.876-9.196v-10.51c0-1.751,0.812-2.877,2.439-3.379l17.079-4.504
				c1.624-0.499,2.439,0.126,2.439,1.877v15.577c0,1.252,0.438,2.316,1.313,3.19c0.874,0.877,1.938,1.314,3.191,1.314h1.501
				c1.249,0,2.313-0.438,3.19-1.314c0.874-0.874,1.314-1.938,1.314-3.19v-11.636c-0.127-1.625-0.376-3.064-0.751-4.317
				c-0.376-1.249-1.126-2.375-2.252-3.378l-24.211-18.58c-1.877-1.751-3.223-3.502-4.035-5.255c-0.815-1.751-1.22-4.064-1.22-6.944
				v-16.892c0-3.252,0.624-6.316,1.876-9.196c1.25-2.877,2.938-5.378,5.067-7.507c2.126-2.126,4.628-3.815,7.508-5.067
				c2.877-1.25,5.941-1.877,9.196-1.877h7.132C619.204,422.248,622.269,422.875,625.148,424.125z"/>
		</g>
		<g id="SSP">
			<path fill="#262626" d="M418.134,242.327c4.618,2.01,8.633,4.721,12.051,8.134c3.412,3.417,6.124,7.433,8.134,12.05
				c2.005,4.622,3.013,9.541,3.013,14.761v11.448c0,2.815-1.309,4.622-3.917,5.422l-27.413,7.23
				c-2.613,0.805-3.917-0.197-3.917-3.012v-19.582c0-2.005-0.706-3.714-2.108-5.121c-1.408-1.403-3.116-2.109-5.121-2.109h-2.41
				c-2.01,0-3.719,0.706-5.121,2.109c-1.408,1.407-2.109,3.116-2.109,5.121v18.376c0.197,2.212,0.603,4.119,1.205,5.724
				c0.603,1.61,1.704,3.215,3.314,4.821l39.463,29.522c3.211,2.814,5.272,5.677,6.177,8.586c0.903,2.913,1.553,6.175,1.958,9.79
				v30.728c0,5.226-1.008,10.145-3.013,14.762c-2.01,4.622-4.722,8.638-8.134,12.051c-3.418,3.417-7.433,6.128-12.051,8.134
				c-4.622,2.005-9.541,3.012-14.761,3.012h-11.448c-5.225,0-10.144-1.007-14.761-3.012c-4.622-2.006-8.638-4.717-12.05-8.134
				c-3.418-3.413-6.129-7.429-8.134-12.051c-2.011-4.617-3.013-9.536-3.013-14.762v-16.87c0-2.81,1.304-4.617,3.916-5.422
				l27.414-7.23c2.607-0.8,3.916,0.202,3.916,3.013v25.004c0,2.01,0.701,3.719,2.109,5.121c1.402,1.407,3.111,2.109,5.121,2.109
				h2.41c2.005,0,3.713-0.702,5.121-2.109c1.402-1.402,2.108-3.111,2.108-5.121v-18.678c-0.202-2.607-0.603-4.919-1.205-6.929
				c-0.603-2.005-1.808-3.812-3.614-5.423l-38.862-29.823c-3.013-2.811-5.173-5.621-6.477-8.436
				c-1.309-2.811-1.958-6.523-1.958-11.146v-27.113c0-5.22,1.002-10.139,3.013-14.761c2.005-4.618,4.716-8.633,8.134-12.05
				c3.412-3.413,7.428-6.124,12.05-8.134c4.617-2.005,9.536-3.013,14.761-3.013h11.448
				C408.593,239.314,413.512,240.321,418.134,242.327z"/>
			<path fill="#262626" d="M517.545,242.327c4.618,2.01,8.633,4.721,12.051,8.134c3.412,3.417,6.124,7.433,8.134,12.05
				c2.005,4.622,3.013,9.541,3.013,14.761v11.448c0,2.815-1.309,4.622-3.917,5.422l-27.414,7.23
				c-2.612,0.805-3.916-0.197-3.916-3.012v-19.582c0-2.005-0.706-3.714-2.108-5.121c-1.407-1.403-3.116-2.109-5.122-2.109h-2.409
				c-2.011,0-3.719,0.706-5.122,2.109c-1.407,1.407-2.108,3.116-2.108,5.121v18.376c0.197,2.212,0.603,4.119,1.205,5.724
				c0.603,1.61,1.704,3.215,3.313,4.821l39.465,29.522c3.21,2.814,5.271,5.677,6.176,8.586c0.903,2.913,1.553,6.175,1.958,9.79
				v30.728c0,5.226-1.008,10.145-3.013,14.762c-2.01,4.622-4.722,8.638-8.134,12.051c-3.418,3.417-7.433,6.128-12.051,8.134
				c-4.622,2.005-9.541,3.012-14.761,3.012h-11.448c-5.225,0-10.144-1.007-14.761-3.012c-4.623-2.006-8.638-4.717-12.051-8.134
				c-3.417-3.413-6.128-7.429-8.134-12.051c-2.01-4.617-3.013-9.536-3.013-14.762v-16.87c0-2.81,1.305-4.617,3.917-5.422
				l27.414-7.23c2.607-0.8,3.916,0.202,3.916,3.013v25.004c0,2.01,0.701,3.719,2.108,5.121c1.403,1.407,3.111,2.109,5.122,2.109
				h2.409c2.006,0,3.715-0.702,5.122-2.109c1.402-1.402,2.108-3.111,2.108-5.121v-18.678c-0.202-2.607-0.603-4.919-1.205-6.929
				c-0.603-2.005-1.808-3.812-3.615-5.423l-38.861-29.823c-3.013-2.811-5.173-5.621-6.477-8.436
				c-1.309-2.811-1.959-6.523-1.959-11.146v-27.113c0-5.22,1.003-10.139,3.013-14.761c2.006-4.618,4.717-8.633,8.134-12.05
				c3.413-3.413,7.428-6.124,12.051-8.134c4.617-2.005,9.536-3.013,14.761-3.013h11.448
				C508.004,239.314,512.923,240.321,517.545,242.327z"/>
			<path fill="#262626" d="M606.713,241.423c5.22,0,10.139,1.007,14.762,3.013c4.617,2.01,8.633,4.721,12.05,8.134
				c3.413,3.417,6.124,7.433,8.134,12.05c2.005,4.622,3.013,9.541,3.013,14.761v40.066c0,5.225-1.008,10.145-3.013,14.762
				c-2.01,4.622-4.721,8.638-8.134,12.05c-3.417,3.418-7.433,6.129-12.05,8.134c-4.623,2.01-9.542,3.013-14.762,3.013h-14.159
				v60.552c0,2.815-1.407,4.218-4.217,4.218h-26.812c-2.815,0-4.218-1.402-4.218-4.218V245.641c0-2.811,1.402-4.218,4.218-4.218
				H606.713z M609.424,280.887c0-2.005-0.706-3.714-2.108-5.122c-1.407-1.402-3.116-2.108-5.121-2.108h-9.641v51.515h9.641
				c2.005,0,3.714-0.702,5.121-2.109c1.402-1.402,2.108-3.111,2.108-5.121V280.887z"/>
		</g>
		<g id="C">
			<path fill="#262626" d="M212.161,242.327c4.618,2.01,8.633,4.721,12.05,8.134c3.413,3.417,6.124,7.433,8.134,12.05
				c2.006,4.622,3.013,9.541,3.013,14.761v18.075c0,2.815-1.309,4.623-3.916,5.422l-27.414,4.218
				c-2.612,0.805-3.916-0.198-3.916-3.013v-23.196c0-2.005-0.706-3.714-2.109-5.121c-1.407-1.403-3.115-2.109-5.121-2.109h-2.41
				c-2.01,0-3.719,0.706-5.121,2.109c-1.407,1.407-2.108,3.116-2.108,5.121v106.041c0,2.01,0.701,3.719,2.108,5.121
				c1.402,1.407,3.111,2.109,5.121,2.109h2.41c2.006,0,3.714-0.702,5.121-2.109c1.403-1.402,2.109-3.111,2.109-5.121v-36.15
				c0-2.81,1.304-3.812,3.916-3.013l27.414,3.615c2.607,0.805,3.916,2.612,3.916,5.423v31.631c0,5.226-1.007,10.145-3.013,14.762
				c-2.01,4.622-4.721,8.638-8.134,12.051c-3.417,3.417-7.432,6.128-12.05,8.134c-4.622,2.005-9.541,3.012-14.762,3.012h-11.447
				c-5.225,0-10.144-1.007-14.762-3.012c-4.622-2.006-8.637-4.717-12.05-8.134c-3.417-3.413-6.129-7.429-8.134-12.051
				c-2.01-4.617-3.013-9.536-3.013-14.762V277.272c0-5.22,1.003-10.139,3.013-14.761c2.005-4.618,4.717-8.633,8.134-12.05
				c3.413-3.413,7.428-6.124,12.05-8.134c4.618-2.005,9.537-3.013,14.762-3.013h11.447
				C202.62,239.314,207.539,240.321,212.161,242.327z"/>
		</g>
	</g>
</g>
</svg>
